HIERARCHY
ROOT Hips
{
  OFFSET -35.2597 29.1586 114.425
  CHANNELS 6 Xposition Yposition Zposition Zrotation Xrotation Yrotation
  JOINT LeftUpLeg
  {
    OFFSET 8.64259 1.95398 -2.38835
    CHANNELS 3 Zrotation Xrotation Yrotation
    JOINT LeftLeg
    {
      OFFSET 43.7702 0 0
      CHANNELS 3 Zrotation Xrotation Yrotation
      JOINT LeftFoot
      {
        OFFSET 40.6238 0 0
        CHANNELS 3 Zrotation Xrotation Yrotation
        JOINT LeftToeBase
        {
          OFFSET 12.7242 0 0
          CHANNELS 3 Zrotation Xrotation Yrotation
          End Site
          {
            OFFSET 0 0 0
          }
        }
      }
    }
  }
  JOINT RightUpLeg
  {
    OFFSET -8.2249 1.95398 -2.59336
    CHANNELS 3 Zrotation Xrotation Yrotation
    JOINT RightLeg
    {
      OFFSET 43.5653 0 0
      CHANNELS 3 Zrotation Xrotation Yrotation
      JOINT RightFoot
      {
        OFFSET 40.6238 0 0
        CHANNELS 3 Zrotation Xrotation Yrotation
        JOINT RightToeBase
        {
          OFFSET 12.7242 0 0
          CHANNELS 3 Zrotation Xrotation Yrotation
          End Site
          {
            OFFSET 0 0 0
          }
        }
      }
    }
  }
  JOINT Spine
  {
    OFFSET 0.165834 0.87714 6.61349
    CHANNELS 3 Zrotation Xrotation Yrotation
    JOINT Spine1
    {
      OFFSET 7.38963 1.71661e-005 0
      CHANNELS 3 Zrotation Xrotation Yrotation
      JOINT Spine2
      {
        OFFSET 11.9445 1.14441e-005 0
        CHANNELS 3 Zrotation Xrotation Yrotation
        JOINT Spine3
        {
          OFFSET 14.7254 4.19617e-005 0
          CHANNELS 3 Zrotation Xrotation Yrotation
          JOINT Spine4
          {
            OFFSET 10.9679 0 0
            CHANNELS 3 Zrotation Xrotation Yrotation
            JOINT RightShoulder
            {
              OFFSET 2.46616 -1.6653 3.69651
              CHANNELS 3 Zrotation Xrotation Yrotation
              JOINT RightArm
              {
                OFFSET 13.0012 0 0
                CHANNELS 3 Zrotation Xrotation Yrotation
                JOINT RightForeArm
                {
                  OFFSET 28.7848 1.62311e-005 0
                  CHANNELS 3 Zrotation Xrotation Yrotation
                  JOINT RightHand
                  {
                    OFFSET 26.5688 1.62095e-005 0
                    CHANNELS 3 Zrotation Xrotation Yrotation
                    End Site
                    {
                      OFFSET 0 0 0
                    }
                  }
                }
              }
            }
            JOINT LeftShoulder
            {
              OFFSET 2.38034 -1.29275 -3.7523
              CHANNELS 3 Zrotation Xrotation Yrotation
              JOINT LeftArm
              {
                OFFSET 16.3182 6.07031e-005 0
                CHANNELS 3 Zrotation Xrotation Yrotation
                JOINT LeftForeArm
                {
                  OFFSET 27.0901 0 0
                  CHANNELS 3 Zrotation Xrotation Yrotation
                  JOINT LeftHand
                  {
                    OFFSET 24.5451 1.51738e-005 0
                    CHANNELS 3 Zrotation Xrotation Yrotation
                    End Site
                    {
                      OFFSET 0 0 0
                    }
                  }
                }
              }
            }
            JOINT Neck
            {
              OFFSET 5.0226 -0.0266342 0
              CHANNELS 3 Zrotation Xrotation Yrotation
              JOINT Head
              {
                OFFSET 6.69364 2.86102e-005 0
                CHANNELS 3 Zrotation Xrotation Yrotation
                End Site
                {
                  OFFSET 0 0 0
                }
              }
            }
          }
        }
      }
    }
  }
}
MOTION
Frames:	7
Frame Time:	0.0416667
-46.2166 104.461 31.7981 87.1012 27.8707 89.5782 -172.185 37.7267 90.0564 -43.0847 0.0410364 -2.50168 71.7207 8.13611 1.51729 9.94195 -15.2371 6.48846 174.433 -4.71931 88.6663 -21.4251 -26.0614 -3.58586 54.7711 4.08127 0.562471 20.3663 2.1905 3.79773 1.66014 7.83534 -89.4232 11.1879 3.57195 0.797695 -0.478329 3.6036 0.639519 -23.0436 3.16696 1.83525 -3.03095 3.16695 1.83525 92.8837 -20.8416 -104.187 12.7296 20.9413 -11.7998 -7.27689 -31.6383 -10.093 -25.4786 6.31423 -33.3697 -82.7113 -39.0933 88.5825 11.1199 -27.6681 -7.97959 2.87652 24.1734 -3.93518 21.4604 -0.507222 -6.48 -15.4596 2.16855 -3.08398 -10.477 2.32813 -0.988018 
-34.6458 108.119 20.7398 85.8692 21.7489 92.6998 -174.794 27.6009 94.1477 -13.2265 -4.99806 -1.57785 73.4971 10.7252 -1.40908 24.0149 -8.30683 10.3789 170.324 -7.73689 83.3669 -30.4698 -16.4036 -2.04842 56.4616 3.90014 1.11556 19.5977 2.68564 3.31994 2.30128 7.62855 -89.7007 11.6276 4.71793 0.0979551 -0.0346607 4.71767 -0.110261 -22.6339 4.46987 1.51421 -2.62124 4.46986 1.5142 93.7997 -17.6352 -103.303 12.7194 24.3388 5.4601 -27.3115 -34.3649 -40.7903 -25.2332 6.9098 -35.8125 -80.8307 -40.1107 91.9028 22.7784 -25.1508 11.9341 2.97827 27.09 -4.03985 12.0984 -0.906781 -10.9376 -23.743 2.11686 1.42348 -5.964 2.37283 -2.45911 
-23.1418 107.608 9.10022 90.7048 18.3653 94.4755 -175.772 19.7225 96.7892 -6.52186 -7.12114 1.10939 77.0207 11.157 -3.34109 27.1629 -8.81326 14.8069 165.718 -16.7798 77.0165 -40.4077 -22.1737 -4.95527 57.1042 3.58878 1.79314 22.3281 1.2317 4.30753 2.6497 7.70598 -90.4272 11.503 5.07208 -1.36829 -0.15896 5.00696 -1.5907 -22.7741 5.24817 0.223517 -2.76145 5.2482 0.223521 94.5258 -17.1502 -101.677 11.9949 26.6962 19.0094 -39.3737 -30.6924 -57.559 -23.3197 7.4268 -41.1278 -78.1743 -37.2675 96.4339 21.294 -19.6765 26.7332 2.76585 20.6875 -3.82238 8.27418 -0.597693 -9.57964 -32.0481 2.24828 2.47529 -3.27981 2.68172 -0.962314 
-12.0436 102.274 -1.65338 92.2078 17.5181 96.418 -171.433 15.0535 97.8113 -8.63194 -4.42916 -1.63811 71.1179 10.4636 -2.55063 22.4414 -9.36173 10.3428 163.586 -22.0566 72.0087 -47.6736 -18.6657 -7.99904 63.7846 -0.98138 -0.547775 24.736 0.537141 3.55757 2.71217 7.40377 -90.8633 12.1235 4.98353 -2.27248 0.459702 4.87871 -2.48996 -22.1499 5.43551 -0.665797 -2.1373 5.43548 -0.665799 94.5846 -19.3562 -100.716 11.5728 26.8569 35.4312 -40.9153 -24.2862 -64.5316 -21.3252 7.08385 -42.6591 -76.4482 -35.7225 99.5292 16.4477 -17.223 33.2138 2.62034 15.6151 -3.67165 12.4894 -0.300283 -5.9781 -33.3603 2.30998 0.9989 -3.93642 2.53572 0.193617 
-2.9058 96.7286 -10.4032 91.6379 21.5429 92.2226 -168.466 23.9786 91.4497 -35.4386 6.99616 -4.96244 71.2311 7.97165 1.46647 12.447 -13.1313 6.08188 167.37 -18.8373 72.5802 -62.8432 -7.7498 -9.9522 66.7468 -4.01913 -3.05078 22.7475 0.748526 5.18645 2.05384 7.53362 -90.1867 11.8439 3.99764 -0.770467 0.179083 3.9599 -0.945928 -22.4065 4.04391 0.468524 -2.39383 4.0439 0.468523 94.8375 -21.8179 -99.3335 21.9414 19.7538 37.5356 -40.1052 -29.9092 -59.0109 -25.5841 7.36537 -37.6673 -78.4792 -45.0036 96.0377 10.9433 -18.4392 27.2205 2.48247 10.1328 -3.52884 12.4258 0.0644994 -3.0994 -25.7796 2.69541 1.5841 -5.43449 2.919 -0.48536 
3.81349 94.9407 -16.0377 93.1771 25.1915 83.2695 -168.079 16.1111 84.1863 -38.3833 7.11306 -6.92542 80.0411 13.9718 -0.728163 16.1325 -12.7796 9.02816 179.8 -0.436084 77.3029 -87.6123 -6.99377 -9.11018 66.9984 -5.10889 -5.10208 19.3788 1.44642 6.75153 1.04248 7.97222 -88.9772 10.8962 2.54797 1.78183 -0.773357 2.62392 1.66792 -23.3111 1.8949 2.46518 -3.2985 1.8949 2.46518 93.5027 -28.8228 -100.067 37.3552 11.8944 14.7704 -14.4137 -43.8646 -18.2635 -29.176 6.81213 -31.471 -81.3212 -56.84 92.2265 1.44609 -22.41 0.851111 2.61044 15.3312 -3.66214 9.45558 0.0689656 -3.00369 -23.5023 4.65371 1.21437 -8.61969 4.85516 -0.299369 
9.93675 96.8766 -21.2576 93.7832 28.5431 84.746 -170.902 7.12314 85.1175 -30.828 7.47058 -5.3389 80.8065 14.5148 -1.22009 16.8683 -13.2478 10.4301 -175.823 15.1903 87.1584 -84.7059 -4.96493 -7.17 68.001 -5.54408 -4.44513 22.1024 0.442961 6.73595 0.209191 7.98462 -89.1623 10.8978 0.803782 1.58988 -0.773963 0.872995 1.55297 -23.301 0.288934 1.75788 -3.28837 0.288931 1.75788 92.4705 -30.6481 -101.63 46.2179 10.5577 11.2319 -5.37399 -50.7646 -5.10175 -24.9925 4.88993 -27.5414 -84.0022 -61.9179 88.9529 -9.48109 -21.4102 -27.4666 3.30488 35.1534 -4.36742 13.6056 -0.947634 -10.1986 -24.9247 6.22952 2.2269 -8.32047 6.51236 0.612572 
